{"accessors" : [{"bufferView" : 0, "byteOffset" : 0, "componentType" : 5123, "count" : 15444, "type" : "SCALAR", "max" : [15443], "min" : [0]}, {"bufferView" : 1, "byteOffset" : 0, "componentType" : 5126, "count" : 15444, "type" : "VEC3", "max" : [47.740318298339844, 50.51267623901367, 28.266971588134766], "min" : [-68.38357543945312, -49.06929397583008, -22.31049156188965], "name" : "POSITION"}, {"bufferView" : 1, "byteOffset" : 12, "componentType" : 5126, "count" : 15444, "type" : "VEC3", "max" : [0.9999037981033325, 0.9999443888664246, 0.9999378323554993], "min" : [-0.9993680119514465, -0.9979569911956787, -0.9980507493019104], "name" : "NORMAL"}, {"bufferView" : 1, "byteOffset" : 24, "componentType" : 5126, "count" : 15444, "type" : "VEC2", "max" : [1.072696566581726, 0.14223837852478027], "min" : [-0.05693709850311279, -1.169069766998291], "name" : "TEXCOORD_0"}, {"bufferView" : 0, "byteOffset" : 30888, "componentType" : 5123, "count" : 858, "type" : "SCALAR", "max" : [857], "min" : [0]}, {"bufferView" : 2, "byteOffset" : 0, "componentType" : 5126, "count" : 858, "type" : "VEC3", "max" : [34.1737174987793, 31.27543067932129, 95.5679931640625], "min" : [-42.75684356689453, -37.022403717041016, -6.525722503662109], "name" : "POSITION"}, {"bufferView" : 2, "byteOffset" : 12, "componentType" : 5126, "count" : 858, "type" : "VEC3", "max" : [0.952621579170227, 0.9981688261032104, 1.0000042915344238], "min" : [-0.9723443388938904, -0.9999938011169434, -1.0000042915344238], "name" : "NORMAL"}, {"bufferView" : 2, "byteOffset" : 24, "componentType" : 5126, "count" : 858, "type" : "VEC2", "max" : [1.0190436840057373, 0.465893030166626], "min" : [-0.019043684005737305, -1.465893030166626], "name" : "TEXCOORD_0"}], "asset" : {"generator" : "Aspose.3D 22.3", "version" : "2.0"}, "buffers" : [{"uri" : "data:application/octet-stream;base64,", "byteLength" : 554280}], "bufferViews" : [{"buffer" : 0, "byteOffset" : 0, "byteLength" : 32604, "target" : 34963}, {"buffer" : 0, "byteOffset" : 32608, "byteLength" : 494208, "byteStride" : 32, "target" : 34962}, {"buffer" : 0, "byteOffset" : 526820, "byteLength" : 27456, "byteStride" : 32, "target" : 34962}], "images" : [{"uri" : "data:image/jpeg;base64,"}, {"uri" : "data:image/jpeg;base64,"}], "materials" : [{"name" : "01 - Default", "pbrMetallicRoughness" : {"baseColorFactor" : [0.5882353186607361, 0.5882353186607361, 0.5882353186607361, 1], "baseColorTexture" : {"index" : 0, "texCoord" : 0}, "metallicFactor" : 0, "roughnessFactor" : 0}, "emissiveFactor" : [0, 0, 0], "alphaMode" : "OPAQUE", "doubleSided" : false}, {"name" : "Blue Crystal", "pbrMetallicRoughness" : {"baseColorFactor" : [0.09019608050584793, 0.4745098352432251, 0.7686275243759155, 1], "baseColorTexture" : {"index" : 1, "texCoord" : 0}, "metallicFactor" : 0, "roughnessFactor" : 0}, "emissiveFactor" : [0, 0, 0], "alphaMode" : "OPAQUE", "doubleSided" : false}], "meshes" : [{"primitives" : [{"attributes" : {"POSITION" : 1, "NORMAL" : 2, "TEXCOORD_0" : 3}, "indices" : 0, "material" : 0, "mode" : 4}, {"attributes" : {"POSITION" : 5, "NORMAL" : 6, "TEXCOORD_0" : 7}, "indices" : 4, "material" : 1, "mode" : 4}]}], "nodes" : [{"matrix" : [1, 0, 0, 0, 0, 2.220446049250313E-16, -1, 0, 0, 1, 2.220446049250313E-16, 0, 10.32162857055664, -36.62874984741211, 0.7216911315917888, 1], "mesh" : 0, "name" : "Crystal"}], "samplers" : [{"magFilter" : 9729, "minFilter" : 9729, "wrapS" : 10497, "wrapT" : 10497}, {"magFilter" : 9729, "minFilter" : 9729, "wrapS" : 10497, "wrapT" : 10497}], "scene" : 0, "scenes" : [{"nodes" : [0]}], "textures" : [{"sampler" : 0, "source" : 0, "name" : ""}, {"sampler" : 1, "source" : 1, "name" : ""}]}