{"accessors" : [{"bufferView" : 0, "byteOffset" : 0, "componentType" : 5123, "count" : 8172, "type" : "SCALAR", "max" : [8171], "min" : [0]}, {"bufferView" : 1, "byteOffset" : 0, "componentType" : 5126, "count" : 8172, "type" : "VEC3", "max" : [43.76969528198242, 43.683326721191406, 8.515000343322754], "min" : [-43.76969528198242, -43.683326721191406, 0], "name" : "POSITION"}, {"bufferView" : 1, "byteOffset" : 12, "componentType" : 5126, "count" : 8172, "type" : "VEC3", "max" : [1.0000044107437134, 0.9980311989784241, 1.0000044107437134], "min" : [-1.0000044107437134, -0.9980311989784241, -1.0000044107437134], "name" : "NORMAL"}, {"bufferView" : 1, "byteOffset" : 24, "componentType" : 5126, "count" : 8172, "type" : "VEC2", "max" : [1.0006282329559326, -0.0003597140312194824], "min" : [-0.0006282329559326172, -0.9996402859687805], "name" : "TEXCOORD_0"}, {"bufferView" : 0, "byteOffset" : 16344, "componentType" : 5123, "count" : 996, "type" : "SCALAR", "max" : [995], "min" : [0]}, {"bufferView" : 2, "byteOffset" : 0, "componentType" : 5126, "count" : 996, "type" : "VEC3", "max" : [42.76969528198242, 42.685298919677734, 7.774410247802734], "min" : [-42.76969528198242, -42.685298919677734, 0.7405729293823242], "name" : "POSITION"}, {"bufferView" : 2, "byteOffset" : 12, "componentType" : 5126, "count" : 996, "type" : "VEC3", "max" : [1.0000042915344238, 0.9980310797691345, 1.0000044107437134], "min" : [-1.0000044107437134, -0.9980311393737793, -1.0000044107437134], "name" : "NORMAL"}, {"bufferView" : 2, "byteOffset" : 24, "componentType" : 5126, "count" : 996, "type" : "VEC2", "max" : [0.8745638728141785, -0.12617528438568115], "min" : [0.12543612718582153, -0.8738247156143188], "name" : "TEXCOORD_0"}], "asset" : {"generator" : "Aspose.3D 22.3", "version" : "2.0"}, "buffers" : [{"uri" : "data:application/octet-stream;base64,", "byteLength" : 311724}], "bufferViews" : [{"buffer" : 0, "byteOffset" : 0, "byteLength" : 18336, "target" : 34963}, {"buffer" : 0, "byteOffset" : 18340, "byteLength" : 261504, "byteStride" : 32, "target" : 34962}, {"buffer" : 0, "byteOffset" : 279848, "byteLength" : 31872, "byteStride" : 32, "target" : 34962}], "images" : [{"uri" : "data:image/jpeg;base64,"}], "materials" : [{"name" : "Coin", "pbrMetallicRoughness" : {"baseColorFactor" : [0.5882353186607361, 0.5882353186607361, 0.5882353186607361, 1], "baseColorTexture" : {"index" : 0, "texCoord" : 0}, "metallicFactor" : 0, "roughnessFactor" : 0}, "emissiveFactor" : [0, 0, 0], "alphaMode" : "OPAQUE", "doubleSided" : false}, {"name" : "Blue Light", "pbrMetallicRoughness" : {"baseColorFactor" : [0.09803922474384308, 0.09803922474384308, 0.615686297416687, 1], "metallicFactor" : 0, "roughnessFactor" : 0}, "emissiveFactor" : [0, 0, 0], "alphaMode" : "OPAQUE", "doubleSided" : false}], "meshes" : [{"primitives" : [{"attributes" : {"POSITION" : 1, "NORMAL" : 2, "TEXCOORD_0" : 3}, "indices" : 0, "material" : 0, "mode" : 4}, {"attributes" : {"POSITION" : 5, "NORMAL" : 6, "TEXCOORD_0" : 7}, "indices" : 4, "material" : 1, "mode" : 4}]}], "nodes" : [{"matrix" : [0.8252303713674752, -1.1102230246251565E-16, 0.5647962766986862, 0, 0.5647962766986862, 2.220446049250313E-16, -0.8252303713674751, 0, 0, 0.9999999999999998, 3.3306690738754696E-16, 0, 0, -4.257500171661376, -1.4180324153772051E-15, 1], "mesh" : 0, "name" : "Sci-Fi Coin"}], "samplers" : [{"magFilter" : 9729, "minFilter" : 9729, "wrapS" : 10497, "wrapT" : 10497}], "scene" : 0, "scenes" : [{"nodes" : [0]}], "textures" : [{"sampler" : 0, "source" : 0, "name" : ""}]}